<?xml version="1.0" standalone="no"?>
<!DOCTYPE svg PUBLIC "-//W3C//DTD SVG 20010904//EN"
 "http://www.w3.org/TR/2001/REC-SVG-20010904/DTD/svg10.dtd">
<svg version="1.0" xmlns="http://www.w3.org/2000/svg"
 width="205.000000pt" height="194.000000pt" viewBox="0 0 205.000000 194.000000"
 preserveAspectRatio="xMidYMid meet">

<g transform="translate(0.000000,194.000000) scale(0.100000,-0.100000)"
fill="#000000" stroke="none">
<path d="M0 970 l0 -970 1025 0 1025 0 0 970 0 970 -1025 0 -1025 0 0 -970z
m1200 411 c0 -5 -12 -40 -26 -77 -14 -38 -50 -139 -81 -224 -205 -578 -181
-524 -231 -528 -23 -2 -42 0 -42 5 0 4 27 82 60 173 32 91 98 273 145 404 47
132 88 243 91 248 7 11 84 10 84 -1z m223 -679 c22 -19 22 -70 0 -94 -20 -22
-70 -23 -95 -1 -18 16 -24 68 -10 89 23 34 69 37 105 6z"/>
</g>
</svg>
